<svg width="224" height="33" viewBox="0 0 224 33" fill="none" xmlns="http://www.w3.org/2000/svg">
<path d="M96.6062 0.893945H55.3665V32.7059H64.6153V24.9347H96.6062C102.4 24.9347 106.5 23.8485 108.906 21.6712C111.312 19.494 112.51 16.5846 112.51 12.9383V12.8904C112.51 9.2441 111.307 6.32992 108.906 4.15266C106.5 1.9754 102.4 0.88916 96.6062 0.88916V0.893945ZM103.266 12.9383C103.266 14.2255 102.79 15.1682 101.832 15.7663C100.875 16.3645 99.1373 16.6611 96.6062 16.6611H64.6153V9.16754H96.6062C99.1325 9.16754 100.875 9.46422 101.832 10.0624C102.785 10.6605 103.266 11.6032 103.266 12.8904V12.9383Z" fill="#FFF7E1"/>
<path d="M135.729 18.7283C136.59 17.3215 137.023 15.5558 137.023 13.4407V10.7754C137.023 7.49751 136.051 5.02835 134.112 3.37267C132.173 1.717 129.305 0.88916 125.513 0.88916H115.109V32.7011H123.155V23.0446H125.258L129.165 32.7011H137.856L132.514 21.6138C133.895 20.9008 134.983 19.9438 135.729 18.7236V18.7283ZM123.155 8.29185H125.513C126.653 8.29185 127.524 8.51675 128.126 8.95699C128.727 9.40201 129.025 10.1437 129.025 11.1869V12.9813C129.025 14.0532 128.732 14.8188 128.145 15.2782C127.558 15.7376 126.682 15.9673 125.508 15.9673H123.15V8.29185H123.155Z" fill="#FFF7E1"/>
<path d="M148.63 0.894043H140.584V32.706H148.63V0.894043Z" fill="#FFF7E1"/>
<path d="M162.359 24.2027L172.392 8.3398V0.894043H152.186V8.3398H162.879L161.94 9.71793L151.912 25.2554V32.706H172.715V25.2554H161.627L162.359 24.2027Z" fill="#FFF7E1"/>
<path d="M194.537 8.38765V0.894043H175.996V32.706H194.537V25.2124H184.042V20.475H192.964V12.9814H184.042V8.38765H194.537Z" fill="#FFF7E1"/>
<path d="M45.5981 0.907715C45.5981 0.907715 40.045 6.29105 40.0786 14.8518H39.1788C39.2125 6.29584 33.6593 0.907715 33.6593 0.907715H19.2086C19.2086 0.907715 13.6554 6.29105 13.6891 14.8518H12.7892C12.8181 6.29105 7.26972 0.907715 7.26972 0.907715H0.503906V32.6862H8.10703C8.10703 30.3749 7.2601 28.102 6.1485 26.1065L6.03783 25.9103L6.72596 25.2261L8.28508 26.1831C9.8057 27.1162 11.514 27.5947 13.2319 27.6186C14.9498 27.5899 16.663 27.1162 18.1788 26.1831L19.7379 25.2261L20.426 25.9103L20.3153 26.1065C19.2037 28.102 18.3568 30.3749 18.3568 32.6862H43.5819C43.5819 25.4749 44.9677 18.3354 47.6529 11.6983L52.0319 0.907715H45.5981ZM35.4831 17.2396C31.7874 18.4311 28.7076 22.4219 27.6345 27.4081L27.1726 29.5662H25.9744V4.03244H27.1726L27.6345 6.19056C28.7028 11.1767 31.7874 15.2968 35.4831 16.4883V17.2348V17.2396Z" fill="#FFF7E1"/>
<path d="M207.237 0.644531H210.129V16.6031C210.129 17.8425 209.922 18.8857 209.508 19.7422C209.095 20.5988 208.455 21.2544 207.598 21.7042C206.737 22.1588 205.673 22.3837 204.412 22.3837H204.384C203.118 22.3837 202.054 22.1588 201.198 21.7042C200.337 21.2496 199.701 20.594 199.288 19.7422C198.874 18.8857 198.667 17.8425 198.667 16.6031V0.644531H201.559V16.3543C201.559 17.0338 201.655 17.6224 201.852 18.1153C202.05 18.6081 202.353 18.9957 202.771 19.2733C203.185 19.5508 203.724 19.6896 204.388 19.6896H204.417C205.081 19.6896 205.62 19.5508 206.034 19.2733C206.448 18.9957 206.756 18.6081 206.953 18.1153C207.15 17.6224 207.247 17.0338 207.247 16.3543V0.644531H207.237Z" fill="#FFF7E1"/>
<path d="M220.364 3.92278C219.931 3.30549 219.253 2.99445 218.343 2.99445H218.314C217.443 2.99445 216.779 3.24328 216.322 3.73616C215.865 4.22903 215.639 4.92288 215.639 5.80815C215.639 6.75561 215.85 7.48775 216.279 8.00455C216.702 8.52135 217.381 9.04772 218.314 9.58366C218.333 9.58366 218.43 9.6363 218.593 9.73679L220.711 10.9762C221.437 11.4068 222.029 11.8853 222.482 12.3974C222.939 12.9142 223.285 13.5362 223.526 14.2684C223.762 15.0005 223.882 15.881 223.882 16.9146C223.882 18.13 223.67 19.1445 223.242 19.9627C222.818 20.7762 222.188 21.3839 221.36 21.7859C220.533 22.1879 219.493 22.3888 218.252 22.3888H218.223C216.293 22.3888 214.85 21.872 213.882 20.8432C212.92 19.8144 212.434 18.13 212.434 15.8044H215.234C215.234 17.1251 215.47 18.1061 215.951 18.7425C216.428 19.3837 217.183 19.6996 218.223 19.6996H218.252C219.185 19.6996 219.873 19.4651 220.321 18.9866C220.768 18.5128 220.99 17.7807 220.99 16.7902C220.99 16.1298 220.898 15.5651 220.711 15.0914C220.523 14.6177 220.263 14.2157 219.931 13.8855C219.599 13.5554 219.185 13.2491 218.685 12.9572L216.447 11.6891C215.639 11.2585 214.975 10.7991 214.455 10.311C213.935 9.8277 213.521 9.21042 213.209 8.45436C212.896 7.70308 212.742 6.76997 212.742 5.65502C212.742 4.02805 213.209 2.72648 214.142 1.75987C215.076 0.793265 216.466 0.305176 218.309 0.305176H218.338C220.244 0.305176 221.635 0.836332 222.506 1.89864C223.377 2.96096 223.81 4.58314 223.81 6.76997H221.009C221.009 5.49232 220.792 4.54485 220.355 3.92278H220.364Z" fill="#FFF7E1"/>
</svg>
