<svg width="243" height="243" viewBox="0 0 243 243" fill="none" xmlns="http://www.w3.org/2000/svg">
<g filter="url(#filter0_d_103_423)">
<path d="M198.045 113.55C193.624 111.115 192.689 105.245 196.26 101.678C198.758 99.1814 201.402 96.7949 204.194 94.5306L215.233 85.6028C217.634 83.6613 218.387 80.3256 217.054 77.5408L215.883 75.0943C215.27 73.8128 213.872 73.1037 212.475 73.3661C202.708 74.9909 192.64 76.0214 182.565 76.1297C177.755 76.1814 174.112 71.9348 174.893 67.1887C176.53 57.2567 179.077 47.459 182.189 38.0701C182.635 36.7232 182.135 35.2438 180.964 34.4432L178.75 32.93C176.17 31.1664 172.716 31.407 170.405 33.5113L159.965 43.0179C157.298 45.4401 154.525 47.7043 151.653 49.8093C147.594 52.784 141.955 50.9701 140.222 46.2456C136.905 37.2043 134.363 27.8684 132.449 18.5944C132.187 17.1986 131.018 16.1541 129.602 16.0495L126.867 15.8476C123.778 15.6196 120.936 17.54 119.994 20.4911L115.686 33.9997C114.586 37.4318 113.318 40.7698 111.894 44.0113C109.868 48.6233 104.074 49.8877 100.205 46.6618C92.7941 40.4826 85.9388 33.6637 79.6568 26.6083C78.7042 25.5494 77.168 25.2444 75.8831 25.8592L73.4987 27.0002C70.6744 28.3516 69.1513 31.4688 69.821 34.5274L72.84 48.3148C73.4919 51.3298 74.0045 54.351 74.3813 57.3729C75.0355 62.6191 70.2564 66.7178 65.1692 65.2789C62.2328 64.4483 59.3121 63.4844 56.4161 62.3854L43.2379 57.317C40.3207 56.1951 37.0148 57.2247 35.2506 59.8048L33.7371 62.0184C32.9363 63.1895 33.0075 64.7494 33.9118 65.8426C39.9251 73.1157 45.6298 80.9353 50.6168 89.1847C53.2227 93.4952 51.1031 99.0343 46.2363 100.333C42.8143 101.246 39.321 101.984 35.7669 102.532L21.818 104.725C18.7261 105.211 16.3751 107.761 16.1409 110.882L15.943 113.518C15.8364 114.938 16.6784 116.259 18.0111 116.762C26.8546 120.049 35.6906 123.978 44.1277 128.623C48.5492 131.058 49.4838 136.928 45.9132 140.496C43.4149 142.992 40.7708 145.378 37.9786 147.643L26.9398 156.571C24.5394 158.512 23.7859 161.848 25.1187 164.632L26.2897 167.079C26.9031 168.36 28.3014 169.07 29.6977 168.807C39.4646 167.182 49.5331 166.152 59.6082 166.044C64.418 165.992 68.0614 170.239 67.2795 174.985C65.6434 184.917 63.0959 194.714 59.9836 204.103C59.5378 205.45 60.0376 206.929 61.209 207.73L63.4231 209.243C66.0034 211.007 69.4574 210.766 71.7682 208.662L82.2076 199.155C84.8747 196.733 87.6477 194.469 90.5201 192.364C94.5791 189.389 100.218 191.203 101.951 195.928C105.268 204.969 107.811 214.305 109.724 223.579C109.986 224.975 111.155 226.019 112.571 226.124L115.306 226.326C118.395 226.554 121.237 224.633 122.179 221.682L126.487 208.174C127.587 204.742 128.855 201.403 130.279 198.162C132.305 193.55 138.099 192.286 141.968 195.512C149.379 201.691 156.234 208.51 162.516 215.565C163.469 216.624 165.005 216.929 166.29 216.314L168.674 215.173C171.499 213.822 173.022 210.704 172.352 207.646L169.333 193.858C168.681 190.843 168.169 187.822 167.792 184.8C167.137 179.554 171.916 175.456 177.004 176.894C179.94 177.725 182.861 178.689 185.757 179.788L198.935 184.856C201.852 185.978 205.158 184.949 206.922 182.369L208.436 180.155C209.237 178.984 209.166 177.424 208.261 176.331C202.248 169.058 196.543 161.238 191.556 152.989C188.95 148.678 191.07 143.139 195.937 141.841C199.359 140.928 202.852 140.189 206.406 139.641L220.355 137.448C223.447 136.962 225.798 134.412 226.032 131.291L226.23 128.655C226.337 127.235 225.495 125.914 224.162 125.411C215.318 122.125 206.482 118.195 198.045 113.55Z" fill="#F582D0"/>
</g>
<defs>
<filter id="filter0_d_103_423" x="15.9336" y="15.8293" width="214.479" height="214.688" filterUnits="userSpaceOnUse" color-interpolation-filters="sRGB">
<feFlood flood-opacity="0" result="BackgroundImageFix"/>
<feColorMatrix in="SourceAlpha" type="matrix" values="0 0 0 0 0 0 0 0 0 0 0 0 0 0 0 0 0 0 127 0" result="hardAlpha"/>
<feOffset dx="4.17383" dy="4.17383"/>
<feComposite in2="hardAlpha" operator="out"/>
<feColorMatrix type="matrix" values="0 0 0 0 0.380392 0 0 0 0 0.0627451 0 0 0 0 0.0901961 0 0 0 1 0"/>
<feBlend mode="normal" in2="BackgroundImageFix" result="effect1_dropShadow_103_423"/>
<feBlend mode="normal" in="SourceGraphic" in2="effect1_dropShadow_103_423" result="shape"/>
</filter>
</defs>
</svg>
