<?xml version="1.0" encoding="UTF-8"?>
<svg id="Layer_2" data-name="Layer 2" xmlns="http://www.w3.org/2000/svg" viewBox="0 0 358.21 375.41">
  <defs>
    <style>
      .cls-1 {
        fill: #fff;
      }
    </style>
  </defs>
  <g id="Layer_1-2" data-name="Layer 1">
    <g>
      <path d="M166.7,375.41c-13.61-1.73-24.39-18.24-31.69-28.8-23.59-34.08-47.24-92.82-49.73-134.32-1.85-30.88,22.01-51.64,51.36-37.79V63.4c0-12.56,15.73-26.93,27.67-28.79,18.72-2.91,40.52,11.1,40.52,30.99v57.56c26.03-12.32,52.87,5.94,51.34,34.46,17.79-10.27,41.79-1.59,48.75,17.61,1.88,5.19,2.2,10.65,2.58,16.12,17.55-8.81,38.92-2.79,47.28,15.41,7.01,15.27,1.64,48.45-1.32,65.38-3.99,22.84-10.85,47.43-18.82,69.17-5.26,14.35-9.47,30.37-26.41,34.08h-141.52ZM182.57,55.97c-9.8-9.68-26.94-3.65-28.88,9.83l-.16,137.69c.27,7.55-8.01,12.09-13.93,7.27-3.91-3.18-2.81-9.81-4.78-14.28-4.93-11.2-22.81-12.65-29.13-1.97s-1.32,30.37,1.24,42.32c8.25,38.44,24.08,76.29,47.75,107.71,3.98,5.28,9.03,13.91,16.03,14.04,42.53-2.42,88.45,3.12,130.58,0,5.52-.41,7.72-.77,10.39-5.74,5.42-10.11,10.93-28.56,14.34-39.92,7.18-23.9,17.36-66.77,15.23-91.15-1.22-13.94-14.36-22.67-26.67-14.15-9.39,6.5-5.24,16.83-11.52,20.74s-12.46-1.16-13.15-8.04c-1.17-11.64,3.47-36.52-4.41-44.71-7.83-8.13-22.02-6.47-27.26,3.53-3.03,5.78-1.23,16.24-10.56,16.59-6.37.24-8.61-5.28-9.09-10.6-.96-10.66,2.39-32-2.06-40.46-5.9-11.21-22.74-11.07-29.14-.24-2.75,4.66-1.82,8.38-3.64,12.49-3.31,7.47-14.97,5.74-15.79-2.55-1.78-27.68,2.46-58.49,0-85.8-.4-4.51-2.12-9.36-5.38-12.58Z"/>
      <path class="cls-1" d="M236.36,51.3h75.53c-5.13-6.86-13.53-12.48-18.7-19.06-7.78-9.89,2.19-20.12,12.49-11.75,7.47,6.07,27.29,25.57,33,33,3.53,4.6,3.53,7.9,0,12.5-5.7,7.42-25.53,26.93-33,33-4.15,3.37-8.88,5.22-13.14.64-3.89-4.19-2.46-8.44.65-12.4,5.17-6.58,13.57-12.2,18.7-19.06h-72.23c-2,2.02-.85,5.51-1.19,8.34-.95,7.94-3.93,17.44-7.85,24.42-3.03,5.41-7.61,12.37-14.76,7.91-9.29-5.81-.51-14.44,2.18-21.21C235.98,42.45,187.59,0,145.42,23.79c-22.1,12.47-31.51,38.96-22.54,62.9,2.33,6.23,11.38,16.37,3.13,21.81-6.5,4.29-10.86-.41-14.16-5.65-6.5-10.34-8.92-22.65-9.68-34.68H29.58c5.19,6.86,13.44,12.47,18.7,19.06,7.53,9.43-1.92,20.34-12.49,11.75-8.32-6.76-25.78-24.31-32.63-32.63-3.95-4.79-4.35-7.85-.36-12.86,5.41-6.78,27.45-29.26,34.09-34.11,7.2-5.27,15.66-.35,13.78,8.65-1.27,6.05-17.42,17.26-21.09,23.26h75.53c3.74-20.34,20.54-38.29,39.33-46.09,38.28-15.89,82.35,5.96,91.92,46.09Z"/>
      <path class="cls-1" d="M182.57,55.97c3.26,3.22,4.98,8.07,5.38,12.58,2.45,27.31-1.79,58.12,0,85.8.82,8.29,12.48,10.02,15.79,2.55,1.82-4.11.89-7.83,3.64-12.49,6.39-10.83,23.24-10.96,29.14.24,4.45,8.46,1.1,29.81,2.06,40.46.48,5.32,2.72,10.84,9.09,10.6,9.33-.35,7.54-10.81,10.56-16.59,5.24-10,19.43-11.66,27.26-3.53,7.89,8.19,3.24,33.08,4.41,44.71.69,6.89,6.58,12.14,13.15,8.04s2.13-14.24,11.52-20.74c12.31-8.52,25.45.22,26.67,14.15,2.13,24.38-8.05,67.25-15.23,91.15-3.41,11.36-8.92,29.82-14.34,39.92-2.67,4.98-4.87,5.33-10.39,5.74-42.13,3.12-88.05-2.42-130.58,0-6.99-.12-12.05-8.76-16.03-14.04-23.66-31.41-39.49-69.27-47.75-107.71-2.57-11.95-7.68-31.46-1.24-42.32s24.19-9.23,29.13,1.97c1.97,4.47.87,11.1,4.78,14.28,5.92,4.81,14.2.27,13.93-7.27l.16-137.69c1.94-13.48,19.07-19.51,28.88-9.83Z"/>
    </g>
  </g>
</svg>